<?xml version="1.0" encoding="UTF-8"?>
<svg id="Layer_1" data-name="Layer 1" xmlns="http://www.w3.org/2000/svg" viewBox="0 0 160 160">
  <defs>
    <style>
      .cls-1 {
        fill: #001625;
      }
    </style>
  </defs>
  <path class="cls-1" d="M128.77,43.45c.41.58.66,1.16.99,1.63.46.67,1.06,1.38,1.48,2.11s.84,1.51,1.32,2.18c.16.22.44.39.58.62.32.55.37.76.77,1.35,1.13,1.63,1.3,2.85,1.18,4.82-.06,1.05-.33,1.34-.62,2.23-.26.8-.3,1.83-.6,2.54-.4.94-.88,1.96-1.44,2.8-1.42,2.12-2.56,3.75-4.48,5.56-1.38,1.3-3.86,1.83-4.02,4-.29,4.1.3,8.52-.08,12.64l.09,18.61c-.18.94-.07,2.01-.29,2.94-.11.46-.43.78-.59,1.16-.69,1.67-1.09,3.02-2.27,4.46-.54.66-1.1,1.29-1.69,1.9-1.82,1.9-3.15,2.69-5.51,3.89-.24.12-.46.4-.69.51-.6.28-1.51.22-2.16.42-1.29.38-1.01.6-2.6.61-4.82.03-9.65.23-14.48.19-.93,0-1.91-.16-2.83.11-.09.03-.57.48-.77.61-1.93,1.19-4.07,2.2-6.05,3.26s-3.76,2.27-5.66,3.37c-2.19,1.27-4.41,2.6-6.6,3.82-1.48.82-2.82,1.53-4.37,2.27-.79.37-.62.71-1.83.67-.62-.02-2.12-.74-2.59-1.14-.66-.56-1.26-2.38-1.32-3.24-.2-2.88.24-6.09,0-8.95-.02-.19-.04-.5-.19-.64-.13-.12-1.1-.31-1.33-.33-2.33-.19-4.92.15-7.28,0-1.09-.07-2.1-.41-3.16-.62-.69-.14-1.81-.17-2.44-.42-.21-.08-.52-.38-.79-.5-1.44-.67-2.87-1.4-4.12-2.42-1.46-1.2-2.4-2.57-3.55-4.01-.72-.89-.68-.96-1.13-2-.62-1.43-1.43-2.96-1.54-4.54-.08-1.19.03-2.48,0-3.69-.22-9.78,0-19.62-.14-29.45-.15-.88-1.25-1.69-1.96-2.19-2.61-1.88-4.53-3.71-6.28-6.44-1.21-1.89-2.77-6.6-2.87-8.83-.02-.49-.04-1.47.11-1.91.05-.15.21-.23.27-.37.62-1.35,1.64-3.11,2.52-4.3.17-.23.5-.44.63-.66.17-.29.21-.75.42-1.05.57-.84,1.17-1.64,1.73-2.5,3.09-4.72,6.08-9.48,9.18-14.14.58-.87,1.91-3.27,2.64-3.81,1.09-.81,2.01-1.1,3.35-1.16,1.81-.09,3.64.09,5.44.1,19,.1,38.07-.23,56.86-.19,2.05,0,4.25-.1,6.28,0,2.35.12,3.35,1.12,4.6,2.96.59.87,1.17,1.78,1.75,2.67,2.73,4.18,5.24,8.42,8.1,12.5ZM115.44,38.26c-.68-1.07-1.51-2.25-2.36-3.21-.08-.09-.09-.25-.19-.36-.39-.44-1.83-1.05-2.44-1.07l-61.62.04c-.33.06-1.38.52-1.62.73-.45.38-.89,1.69-1.31,2.11-1.47,1.48-2.49,3.53-3.65,5.32-.7,1.07-1.36,1.93-1.99,3.07-.39.71-.91,1.14-1.31,1.82-.63,1.08-1.27,1.99-1.91,3.05-.25.41-.48.89-.74,1.31-1.27,2.04-3.33,4.1-2.13,6.67.47,1,1.28,3,2,3.77.35.38.81.92,1.19,1.29.87.85,2.92,2.22,4.08,2.52,1.3.33,2.92.6,4.23.65,2.16.08,3.99-.17,5.87-1.28.71-.42,1.68-.86,2.37-1.34.16-.11,1.8-1.95,2.02-2.22,1.66-2.06,2.13-4.48,2.61-6.98.18-.96.37-2.24,1.14-2.92.09-.08,1.53-1.01,1.63-1.04,1.49-.5,4.58.1,5.36,1.53.67,1.22.6,2.57.82,3.87.46,2.72,2.07,4.92,3.76,6.93,1.09,1.3,1.69,1.17,2.98,1.98.11.07.21.28.44.41,2.37,1.37,6.99,1.18,9.58.47,1-.27.91-.49,1.59-.94.21-.14.66-.24.88-.36.88-.5,1.42-.83,2.1-1.54,1.23-1.3,2.02-2.72,2.92-4.24.54-.9.72-3.67,1.01-4.88s.39-1.82,1.51-2.54c2.3-1.46,4.82-1,6.64.93.2.77.47,1.55.65,2.35.06.26-.01.53.05.78.73,3.35,2.18,6.91,5.12,8.73,1.54.95,2.18,1.59,4.05,1.92,1.41.25,3.35.53,4.77.4.59-.05,1.28-.43,1.86-.53.84-.15,1.09.04,1.96-.43,3.45-1.9,4.85-3.58,6.53-7.13.17-.37.29-1.21.29-1.63-.02-1.06-.73-2.51-1.26-3.45-.4-.72-1.08-1.23-1.42-1.74-.5-.75-.86-2.15-1.38-2.81-1.18-1.47-2.17-2.95-3.12-4.55-1.12-1.87-2.38-3.6-3.55-5.44ZM98.46,68.42c-.52-.55-.69-1.09-1.65-.97-.58.07-1.08.93-1.52,1.34-2.24,2.06-5.77,4.35-8.64,5.36-2.46.86-7.28.81-9.93.58-4.12-.37-7.04-2.2-10.32-4.42l-2.9-2.72c-1.3-.4-1.68.53-2.44,1.24-.89.84-1.59,1.3-2.53,2-1.03.77-1.71,1.55-2.93,2.13-2.69,1.27-5.65,1.87-8.64,1.96-.81.03-2.02-.4-2.35.61-.12.37-.18,1.82-.19,2.29-.02.85.1,1.68.1,2.49.03,7.74-.37,15.93,0,23.6.14,2.91,1.25,3.96,3.2,5.79.22.21.34.57.63.8,1.68,1.36,5.66,1.29,7.74,1.27,3.02-.03,6.11-.23,9.12.02,1.67.14,3.75,1.39,4.35,3.02.72,1.93.72,3.2.57,5.23-.01.19.1.42.08.54-.02.08-.24.28-.32.5-.11.28-.21,1.22-.22,1.54s.09.69.24.97c.1.02,1.72-.76,1.88-.88.86-.65,1.75-1.65,2.62-2.22,1.03-.67,2.05-1.1,3.09-1.66.75-.4,1.47-1.09,2.23-1.54,1.77-1.05,3.8-1.83,5.51-2.97,1.16-.77,1.87-1.23,3.21-1.77.82-.32,1.76-.79,2.65-.86,5.32-.4,11.13.31,16.5,0,2.56-.15,3.93-.88,5.57-2.72.42-.47.45-.66.78-1.11.17-.24.53-.53.67-.75.73-1.15.91-3.05.96-4.39.28-7.44.04-15.4-.1-22.86-.03-1.46.06-2.93-.04-4.39-.05-.16-.68-.61-.84-.64-.81-.16-2.31.04-3.23,0-2.86-.13-4.7-.93-7.17-2.14-1.74-.85-4.41-2.85-5.74-4.26Z"/>
  <path class="cls-1" d="M84.66,88.49c.91.86,1.18,1.68,1.39,2.9.36,2.03.08,4.14-1.27,5.75-.24.28-1.43,1.56-1.68,1.66-.53.21-1.69.54-2.24.62-4.66.64-8.09-3.67-7.09-8.11.28-1.24.69-1.88,1.52-2.79.06-.07.28-.28.38-.38.61-.6,1.21-1.15,2.09-1.32,2.54-.49,4.97-.14,6.9,1.67Z"/>
  <path class="cls-1" d="M64.26,88.05c1.22,1.03,1.26,1.42,1.93,2.82.2.42.45.52.53,1.04.22,1.53-.2,2.65-.94,3.94-1.52,2.65-3.8,3.93-6.93,3.38-1.53-.27-3.79-1.96-4.28-3.46-.61-1.82-.67-3.92-.06-5.75.36-1.08,1.4-1.64,2.22-2.3.71-.57.65-.82,1.75-1.01,2.18-.38,4.12-.06,5.79,1.34Z"/>
  <path class="cls-1" d="M103.73,88.12c2.03,1.85,2.64,4.02,1.93,6.79-.11.43-.48,1.27-.67,1.63-.5.9-2.68,2.49-3.68,2.68-2.47.47-5.48-.37-6.78-2.66-.42-.74-1.31-2.58-1.34-3.36-.06-1.81,1.3-4.19,2.71-5.29,1.53-1.19,3.4-1.54,5.34-1.28,1.11.15,1.74.79,2.51,1.5Z"/>
</svg>